<svg xmlns="http://www.w3.org/2000/svg" xmlns:xlink="http://www.w3.org/1999/xlink" viewBox="0 0 570 571.34"><path fill="#E8F0FE" d="M162.7 440.9h246.6V537H162.7z"/><path fill="#D2E3FC" d="M398.357 440.947h-81.7v-11.6h81.7z"/><path fill="#D2E3FC" d="M331.953 440.947h-4.4v-11.6h4.4z"/><path fill="#D2E3FC" d="M331.953 440.947h-4.4v-11.6h4.4z"/><path fill="#E8F0FE" d="M371.18 429.377h-58.5v-1.9h58.5zm0-8.827h-58.5v-1.9h58.5z"/><path fill="#FFF" d="M371.18 427.452h-58.5v-6.9h58.5z"/><path fill="#D2E3FC" d="M318.665 418.71v-8.9h41.3v8.9zm-5.865 2.69h45.7v1h-45.7zm0 2.1h45.7v1h-45.7zm0 2.2h45.7v1h-45.7z"/><path fill="#E8F0FE" d="M374.4 367.4H177c-11.8 0-21.3-9.5-21.3-21.3V66.4c0-11.8 9.5-21.3 21.3-21.3h148l70.7 70.7v230.3c0 11.7-9.5 21.3-21.3 21.3z"/><linearGradient id="a" gradientUnits="userSpaceOnUse" x1="270.7" y1="223.662" x2="417.392" y2="510.879"><stop offset="0" stop-color="#fff" stop-opacity="0"/><stop offset=".515" stop-color="#e6effd" stop-opacity=".59"/><stop offset=".873" stop-color="#d2e3fc"/></linearGradient><path opacity=".4" fill="url(#a)" d="M374.4 367.4H177c-11.8 0-21.3-9.5-21.3-21.3V66.4c0-11.8 9.5-21.3 21.3-21.3h148l70.7 70.7v230.3c0 11.7-9.5 21.3-21.3 21.3z"/><path fill="#1A73E8" d="M395.7 115.8h-49.4c-11.8 0-21.3-9.5-21.3-21.3V45.1l70.7 70.7z"/><g fill="#D2E3FC"><path d="M295.6 352.7c-17 0-30.9-13.9-30.9-30.9s13.9-30.9 30.9-30.9 30.9 13.9 30.9 30.9-13.8 30.9-30.9 30.9zm0-58.8c-15.4 0-27.9 12.5-27.9 27.9s12.5 27.9 27.9 27.9 27.9-12.5 27.9-27.9-12.5-27.9-27.9-27.9zm58.8 58.8c-.6 0-1.1-.3-1.3-.8L323.7 293c-.2-.5-.2-1 .1-1.5s.8-.7 1.3-.7h58.8c.5 0 1 .3 1.3.7s.3 1 .1 1.5l-29.4 58.8c-.4.6-.9.9-1.5.9zm-26.9-58.8l27 54 27-54h-54z"/><path d="M354.4 352.7h-58.8c-.8 0-1.5-.7-1.5-1.5v-58.8c0-.8.7-1.5 1.5-1.5h58.8c.8 0 1.5.7 1.5 1.5v58.8c0 .8-.6 1.5-1.5 1.5zm-57.3-3h55.8v-55.8h-55.8v55.8z"/></g><g fill="#D2E3FC"><path d="M354.4 282.2c-17 0-30.9-13.9-30.9-30.9s13.9-30.9 30.9-30.9 30.9 13.9 30.9 30.9-13.8 30.9-30.9 30.9zm0-58.8c-15.4 0-27.9 12.5-27.9 27.9s12.5 27.9 27.9 27.9 27.9-12.5 27.9-27.9-12.5-27.9-27.9-27.9z"/><path d="M295.6 282.2c-.3 0-.5-.1-.8-.2-.4-.3-.7-.8-.7-1.3v-58.8c0-.5.3-1 .7-1.3.4-.3 1-.3 1.5-.1l58.8 29.4c.5.3.8.8.8 1.3s-.3 1.1-.8 1.3L296.3 282c-.2.1-.4.2-.7.2zm1.5-57.9v54l54-27-54-27z"/><path d="M354.4 282.2h-58.8c-.8 0-1.5-.7-1.5-1.5v-58.8c0-.8.7-1.5 1.5-1.5h58.8c.8 0 1.5.7 1.5 1.5v58.8c0 .8-.6 1.5-1.5 1.5zm-57.3-3h55.8v-55.8h-55.8v55.8z"/></g><path d="M269.4 226.8h-96.7c-2.2 0-4-1.8-4-4s1.8-4 4-4h96.7c2.2 0 4 1.8 4 4s-1.8 4-4 4zm0 19h-96.7c-2.2 0-4-1.8-4-4s1.8-4 4-4h96.7c2.2 0 4 1.8 4 4s-1.8 4-4 4zm0 19h-96.7c-2.2 0-4-1.8-4-4s1.8-4 4-4h96.7c2.2 0 4 1.8 4 4s-1.8 4-4 4zm-48.4 19h-48.3c-2.2 0-4-1.8-4-4s1.8-4 4-4H221c2.2 0 4 1.8 4 4s-1.7 4-4 4z" fill="#D2E3FC"/><circle fill="#D2E3FC" cx="205.8" cy="114.4" r="37.1"/><path fill="#D2E3FC" d="M275.7 202.7h-43.3l21.7-37.5 21.6-37.5 21.7 37.5 21.6 37.5z"/><path fill="#D2E3FC" d="M338.9 202.7h-43.3l21.7-27.7 21.6-27.6 21.7 27.6 21.6 27.7z"/><path fill="#1A73E8" d="M80 338.9c-8.8 11.5-19.4 28.7-25.3 51.3-15.7 59.5 12.6 109.7 20 122h13.1c0-34 12.2-68.1 12.2-102.1 5.6 33.1 11.2 66.3 16.7 99.4h40.7c-7.4-30.8-14.8-61.6-22.1-92.4-3-12.6-4.5-25.4-4.5-38.3V349c-17-3.4-33.9-6.8-50.8-10.1z"/><path fill="#FF8B69" d="M122.6 220.4l-1.7-8.1c.5-.2.7-.8.4-1.4l-.6-1c-.4-.6-.6-1.3-.8-2-.2-1.1-.4-2.3-.6-3.5-.6-4.5-4.5-7.9-9.2-7.8-5 .1-9 4.4-9 9.4v32.9H112v-14.3h7.2c2.2.1 3.9-2 3.4-4.2z"/><path fill="#FEEFC3" d="M97.1 226.7h18.6v14.7H97.1z"/><path fill="#FEEFC3" d="M169.5 251.5c-22.8-13-48.6-18.7-74.1-17-38.9 2.6-68.8 35.4-68.8 74.3v41.4c0 10.3 6.6 19.4 16.3 22.6l27.4 9.1c4.8 1.6 10.1-1.1 11.5-6l.5-1.9h55.8v-23.4h.1c2.4 0 4.7-.5 6.9-1.3 1.7 8.8 9.7 15.4 19.2 14.9 9.9-.5 17.5-9 17.5-18.9v-72.5c0-8.8-4.7-17-12.3-21.3z"/><path fill="#FEEFC3" d="M90.5 362l-31.7-23.6 23.9-57.1c.3-.8 0-1.6-.8-2-.8-.3-1.6 0-2 .8L56 337.4H43c-.8 0-1.5.7-1.5 1.5s.7 1.5 1.5 1.5h13.6l32.2 24c.3.2.6.3.9.3.5 0 .9-.2 1.2-.6.4-.7.3-1.6-.4-2.1zm54.6-14.3c-.8 0-1.5-.7-1.5-1.5v-88.8c0-.8.7-1.5 1.5-1.5s1.5.7 1.5 1.5v88.8c0 .8-.6 1.5-1.5 1.5z"/><path fill="#A73D22" d="M118.3 195.6l-14.4 1.1c-1.5.1-2.7 1.4-2.7 2.9v.7c-1.6.1-2.8 1.5-2.6 3.1l2.6 16c3.4 0 6.1-2.7 6.1-6.1v-6.5c0-.7.5-1.2 1.2-1.2s1.2.5 1.2 1.2v2h2.4V205c0-.7-.6-1.2-1.2-1.2h7.6c2.2 0 4.1-1.6 4.2-3.8.1-2.6-1.9-4.6-4.4-4.4z"/><path fill="#FF8B69" d="M81.9 375.7s-6.2-10.4 6.5-22.2m62.1-69.3s8.7-5.5 5.3-18l-3.8-1.5-1.5 19.5m245.3-61.8h-3.9c-.7 0-1.3-.4-1.4-1.1-.1-.8.5-1.5 1.3-1.5h2.6c.8 0 1.4-.6 1.4-1.4v-10.6c0-1 .7-1.8 1.6-2 1.1-.2 2.1.6 2.2 1.6l2.7 19.8h-6.5v-4.8zm24.759-11.072l6.873 1.782-3.665 14.133-6.873-1.782zM417.7 203.4l-2.8 1c-.4.1-.8-.1-1-.5-.1-.4.1-.8.5-1l2.8-1 .5 1.5zm-88.5 129.3h-7c-1.2 0-2.3.2-3.4.5l-1.9-2.9c-.4-.6-1.2-.8-1.9-.4-.6.4-.8 1.2-.4 1.9l1.5 2.2-6.4 2c-1.7.5-2.9 2.3-2.4 4.1.5 1.9 2.4 3 4.2 2.4l10.8-3.3h6.8v-6.5z"/><path fill="#FF8B69" d="M418.5 215.7c-3.1-.5-5.2-3.3-4.7-6.4l1.9-12.1 11.1 1.7-1.9 12.1c-.5 3.1-3.4 5.2-6.4 4.7z"/><g fill="#D2E3FC"><path d="M440 338.4l4.8 91.4 45.9 91h23l-40.5-99-6.6-78.4-22.1-8.3c-2.2-.9-4.6.8-4.5 3.3z"/><path d="M440.1 339.8l4.8 90 45.9 91h23l-40.5-99-6.6-78.4-20.8-7.8c-2.9-1.2-6 1.1-5.8 4.2z"/></g><path fill="#E8F0FE" d="M427 336.8l-6.1 69.6c-.6 7.2-.3 14.4.9 21.5l15.8 92.8h27.6l-15.5-105.5 15.3-36.6c6.4-15.3 5-32.7-3.7-46.8l-.6-1-33.7 6z"/><path fill="#D2E3FC" d="M427 336.8l-6.1 69.6c-.6 7.2-.3 14.4.9 21.5l15.8 92.8h27.6l-15.5-105.5 15.3-36.6c6.4-15.3 5-32.7-3.7-46.8l-.6-1-33.7 6z"/><g fill="#CEEAD6"><path d="M450.7 318.2c-.4-.5.1-1.3.8-1.1 8.8 2.8 22.1 5.2 33.7-.8 29-14.8 35.5-74.6 7.7-92.9-15-9.9-38.1-6.5-58.1 5.5-4.9-1.8-31.2-11.1-49.3 1.5-21.9 15.3-27.6 59.5 1.1 99.1-11.6-1.4-25.4-2.1-40.8-1-8.9.6-17 1.8-24.3 3.2v8c7.7 7.4 22.4 19 43.7 23.2 12.8 2.5 33.1 6.4 46.5-6.6 10-9.8 10.9-24 10.3-32.6 0-.7 1-.9 1.2-.2 1.3 4.5 2.7 9 4 13.5 11.2-2 23.2-4.1 34.5-6.1-3.6-4.3-7.7-8.5-11-12.7z"/><path opacity=".4" d="M450.7 318.2c-.4-.5.1-1.3.8-1.1 8.8 2.8 22.1 5.2 33.7-.8 29-14.8 35.5-74.6 7.7-92.9-15-9.9-38.1-6.5-58.1 5.5-4.9-1.8-31.2-11.1-49.3 1.5-21.9 15.3-27.6 59.5 1.1 99.1-11.6-1.4-25.4-2.1-40.8-1-8.9.6-17 1.8-24.3 3.2v8c7.7 7.4 22.4 19 43.7 23.2 12.8 2.5 33.1 6.4 46.5-6.6 10-9.8 10.9-24 10.3-32.6 0-.7 1-.9 1.2-.2 1.3 4.5 2.7 9 4 13.5 11.2-2 23.2-4.1 34.5-6.1-3.6-4.3-7.7-8.5-11-12.7z"/></g><path fill="#EA4335" d="M441.2 207.8c2-4.8.6-11.2-4-15.8-5.8-5.8-14.4-6.6-19.1-1.8s-4 13.4 1.8 19.1c2 2 2.5 5 1 7.3-2 3.2-3.2 7-3.1 11 .2 10.3 8.5 18.8 18.8 19.3 11.4.6 20.9-8.5 20.9-19.8 0-9.6-7-17.6-16.3-19.3z"/><path fill="#CEEAD6" d="M452.7 314c-.5 0-1.1-.3-1.3-.8-.4-.7-.1-1.6.6-2 .1-.1 9.6-5.3 16.9-17 9.6-15.4 10.9-35.1 3.7-56.9-.3-.8.2-1.6 1-1.9.8-.3 1.6.2 1.9 1 5.2 15.9 8.7 39.1-4.1 59.6-7.7 12.3-17.5 17.7-17.9 17.9-.3.1-.5.1-.8.1zm-51.8 23.4c-.4 0-.8-.1-1.1-.4-4.4-4.5-11.7-5.6-11.7-5.6-.8-.1-1.4-.9-1.3-1.7.1-.8.9-1.4 1.7-1.3.3 0 8.3 1.2 13.5 6.4.6.6.6 1.5 0 2.1-.3.4-.7.5-1.1.5zm16.8-67.4h-.3c-.8-.2-1.3-1-1.1-1.8 1.4-6.1-2.6-12.8-2.6-12.9-.4-.7-.2-1.6.5-2.1.7-.4 1.6-.2 2.1.5.2.3 4.6 7.8 3 15.1-.3.7-.9 1.2-1.6 1.2z"/><path fill="#D2E3FC" d="M454.6 450.7c-.7 0-1.4-.5-1.5-1.3l-5-34.2c0-.3 0-.6.1-.8l15.5-36.5c.3-.8 1.2-1.1 2-.8.8.3 1.1 1.2.8 2l-15.3 36.1 5 33.8c.1.8-.4 1.6-1.3 1.7h-.3z"/><g fill="#FEEFC3"><path d="M64.7 473.2h405v74h-405z"/><path d="M70.7 473.2h8v47.5h-8zm55 0h8v47.5h-8zm55 0h8v47.5h-8zm55 0h8v47.5h-8zm55 0h8v47.5h-8zm55 0h8v47.5h-8zm55 0h8v47.5h-8zm55 0h8v47.5h-8z"/></g><path fill="#FAD2CF" d="M483.5 506.7H403v18.6c0 12.1 9.8 21.9 21.9 21.9h58.7v-40.5z"/><path fill="#FAD2CF" d="M483.5 506.7H403v18.6c0 12.1 9.8 21.9 21.9 21.9h58.7v-40.5z"/><path fill="#D2E3FC" d="M483.5 506.7h23.2c12.1 0 21.9 9.8 21.9 21.9v18.6h-45.1v-40.5z"/><path fill="#FAD2CF" d="M85.3 509.2l-38.9-11.3L36 533.7c-.5 1.7.5 3.5 2.2 4l32.7 9.5c1.7.5 3.5-.5 4-2.2l10.4-35.8z"/><path fill="#FAD2CF" d="M85.3 509.2l-13-3.8L61 544.3l11.2 3.2c1 .3 2-.3 2.3-1.3l10.8-37z"/><path fill="none" d="M85.3 509.2l-38.9-11.3L36 533.7c-.5 1.7.5 3.5 2.2 4l32.7 9.5c1.7.5 3.5-.5 4-2.2l10.4-35.8z"/><path fill="#E8EAED" d="M55.772 465.732l38.896 11.284-9.333 32.173-38.897-11.283z"/><path fill="#AAA" d="M54.184 470.914l38.897 11.283-2.368 8.163-38.897-11.283zm-3.914 13.715l38.896 11.283-2.368 8.164-38.896-11.284z"/><path fill="none" d="M55.772 465.732l38.896 11.284-9.333 32.173-38.897-11.283z"/><path fill="#CEEAD6" d="M125.443 225.265l12.965 3.761L68.647 469.51l-12.965-3.76zm13.015 3.712l12.966 3.761-69.762 240.484-12.965-3.76z"/><g fill="#CEEAD6"><path d="M151.446 232.785l12.966 3.761L94.65 477.03l-12.965-3.76z"/><path d="M151.446 232.785l12.966 3.761L94.65 477.03l-12.965-3.76z"/></g><path fill="#FEEFC3" d="M165.8 158.9l-40.3 66.4 38.9 11.2z"/><path fill="#5F6365" d="M160.2 178.3c1.8.5 3.5.7 5.3.8l.4-20.2-10.5 17.3c1.4.9 3 1.6 4.8 2.1z"/><path fill="none" d="M165.8 158.9l-40.3 66.4 38.9 11.2z"/><path fill="#FEEFC3" d="M138.4 229c-1 3.6-4.8 5.6-8.4 4.6-3.6-1-5.6-4.8-4.6-8.4l13 3.8z"/><path fill="#FEEFC3" d="M143 237.4c-3.6-1-5.6-4.8-4.6-8.4l13 3.8c-1 3.6-4.8 5.6-8.4 4.6"/><path fill="#FEEFC3" d="M156 241.1c-3.6-1-5.6-4.8-4.6-8.4l13 3.8c-1.1 3.6-4.8 5.7-8.4 4.6"/><path fill="#FFF" d="M273.2 488.5l-9.5 49 23.2 9.7h22.2c0-5.6-4.6-10.2-10.2-10.2h-5.2l-11.4-11.4 7.9-33.9-17-3.2zm76.5 38.5l28.7 20.2 36-37-2.4-2.4c-2.6-2.6-6.8-3-9.9-.8L377 525.2 354.2 509l-4.5 18z"/><path fill="#491104" d="M219.8 418.9l17.6 15.8c.9.8 1.1 2.1.4 3.1-.7 1.1-2.2 1.4-3.4.7L215.2 426l4.6-7.1z"/><defs><path id="b" d="M206.4 435.5l88.4-13.7c10.5-1.6 19.2 8.2 16.3 18.5l-18.4 81.4-27-6.2 11.4-60.6-48.8 18.2-21.9-37.6z"/></defs><clipPath id="c"><use xlink:href="#b" overflow="visible"/></clipPath><path clip-path="url(#c)" fill="#D2E3FC" d="M206.4 435.5l88.4-13.7c10.5-1.6 19.2 8.2 16.3 18.5l-18.4 81.4-27-6.2 11.4-60.6-48.8 18.2-21.9-37.6z"/><path opacity=".4" clip-path="url(#c)" fill="#D2E3FC" d="M206.4 435.5l88.4-13.7c10.5-1.6 19.2 8.2 16.3 18.5l-18.4 81.4-27-6.2 11.4-60.6-48.8 18.2-21.9-37.6z"/><path clip-path="url(#c)" fill="#D2E3FC" d="M300.5 515h-.3l-36.2-8.2c-.8-.2-1.3-1-1.1-1.8.2-.8 1-1.3 1.8-1.1l36.2 8.2c.8.2 1.3 1 1.1 1.8-.2.6-.9 1.1-1.5 1.1z"/><path fill="none" d="M206.4 435.5l88.4-13.7c10.5-1.6 19.2 8.2 16.3 18.5l-18.4 81.4-27-6.2 11.4-60.6-48.8 18.2-21.9-37.6z"/><path fill="#D2E3FC" d="M181.8 401.2l-5 25.5c-4.7 24.1 13.8 46.5 38.3 46.5h48.1l89.1 57.6 17.1-20.2-53.4-53.8c-12.3-12.4-28.8-20-46.3-20.6H221v-24.5l-39.2-10.5z"/><path fill="#D2E3FC" d="M351.2 513.7c-.3 0-.6-.1-.9-.3L279.6 462c-4.8-3.5-10.4-5.3-16.4-5.3h-54.6c-5.9 0-10.9-4.2-12.1-9.9l-3.3-16.6c-.2-.8.4-1.6 1.2-1.8.8-.2 1.6.4 1.8 1.2l3.3 16.6c.9 4.3 4.7 7.5 9.1 7.5h54.6c6.6 0 12.8 2 18.1 5.9L352 511c.7.5.8 1.4.3 2.1-.2.4-.6.6-1.1.6zm-5.3 13l17.7-22.1-2.2-2.1-18 22.5z"/><path fill="none" d="M181.8 401.2l-5 25.5c-4.7 24.1 13.8 46.5 38.3 46.5h48.1l89.1 57.6 17.1-20.2-53.4-53.8c-12.3-12.4-28.8-20-46.3-20.6H221v-24.5l-39.2-10.5z"/><path fill="#A73D22" d="M221 427.7l23.4 3.7c1.2.2 2 1.2 2 2.4 0 1.3-1.1 2.4-2.4 2.4h-23v-8.5z"/><path fill="#491104" d="M222.8 288.1l-8.5 11.3c-2.9 3.8-.8 9.4 3.9 10.4s8.8-3.2 7.8-7.9l-3.2-13.8z"/><path fill="#A73D22" d="M228.9 294.9c.1-.4-.2-.8-.5-.8l-.5-.1-.5-2.1c-1.5-6.2-7.7-10-13.9-8.5-3.4.8-5.8 3.9-5.8 7.5.2 8.2-.1 22.2-3.6 26.9h14.4l-1.1-10c1.8.6 3.8.6 5.7-.1 4.3-1.6 6.5-6.2 5.5-10.6l-.4-1.5c.3-.1.6-.3.7-.7z"/><path fill="#491104" d="M226.7 290c-2.2-5.1-7.7-8-13.2-6.6-3.4.8-5.8 3.9-5.8 7.5v2.7c2.2 1.5 4.9 2.5 7.8 2.5 4.6-.2 8.7-2.6 11.2-6.1z"/><path fill="none" d="M228.9 294.9c.1-.4-.2-.8-.5-.8l-.5-.1-.5-2.1c-1.5-6.2-7.7-10-13.9-8.5-3.4.8-5.8 3.9-5.8 7.5.2 8.2-.1 22.2-3.6 26.9h14.4l-1.1-10c1.8.6 3.8.6 5.7-.1 4.3-1.6 6.5-6.2 5.5-10.6l-.4-1.5c.3-.1.6-.3.7-.7z"/><path fill="#491104" d="M208.8 288.5l-7.3 12.1c-2.5 4.1.1 9.4 4.9 9.9 4.8.5 8.5-4.1 6.9-8.6l-4.5-13.4z"/><path fill="#FAD2CF" d="M221 436.2c-35.5 7-67-9.7-75.3-34.5-4.9-14.5-1.9-32 8-44.5 15.4-19.2 46.2-24.8 73.5-10.5 1.9 3 16.2 26 6.5 49.5-3.1 7.6-7.8 12.9-11.7 16.5-.3 7.8-.6 15.7-1 23.5z"/><path fill="#FAD2CF" d="M194 435.5c-23-5.8-28-45.1-29.7-58.7-2-15.4-3.8-29.9 5.1-42.6 13.1-18.8 44.2-25.9 64.7-13.3 25.7 15.8 22.1 54.9 12 76.7-9.3 19.9-32 43-52.1 37.9z"/><path fill="#FAD2CF" d="M202.53 310.493l18.969 2.233-.561 4.767-18.969-2.233z"/><circle fill="#491104" cx="205" cy="287.2" r="4.9"/><path fill="#A73D22" d="M214.5 297.5c-.6.9-2 .8-2.7.4-.2-.1-.7-.4-1.1-1-.3-.5-.6-1.4-.1-2.1.6-.9 2.4-1 3.4-.1.6.7 1.1 2 .5 2.8z"/><path fill="#FAD2CF" d="M220.2 422.7h-5.8c-2.4-5.1-8.6-15.4-21.7-20.6-1.4-.5-2.7-1-4.1-1.4 5-3.4 12.5-10.3 16.3-22.2 5.2-16.4-1.5-30.2-3.6-34-.4-.7-1.3-1-2-.6s-1 1.3-.6 2c2 3.6 8.2 16.4 3.4 31.6-4.2 13.3-13.5 19.9-17.6 22.2-8.3-1.4-15.3.2-19.3 1.5-.8.3-1.2 1.1-1 1.9.3.8 1.1 1.2 1.9 1 3.9-1.3 14.2-3.8 25.5.7 13.2 5.3 19 16.6 20.4 20 .2.5.8.9 1.4.9h6.8c.8 0 1.5-.7 1.5-1.5s-.7-1.5-1.5-1.5z"/><path fill="#D2E3FC" d="M372 530.2c-.5 0-.9-.2-1.2-.6-.5-.7-.3-1.6.4-2.1l13.9-9.9c.7-.5 1.6-.3 2.1.4s.3 1.6-.4 2.1l-13.9 9.9c-.3.1-.6.2-.9.2zm-78.3 14c-.8 0-1.5-.7-1.5-1.5V537c0-.8.7-1.5 1.5-1.5s1.5.7 1.5 1.5v5.7c0 .8-.7 1.5-1.5 1.5z"/><path fill="#FF8B69" d="M85.4 363.3l9.2 6.4c2.1 1.5 3 4.1 2.3 6.5-1.1 4-5.8 5.7-9.2 3.4l-5.9-4 3.6-12.3zm65.1-79.1l-9.1-6.4c-2.1-1.5-3-4.1-2.3-6.5 1.1-4 5.8-5.7 9.2-3.4l5.9 4-3.7 12.3z"/><path fill="#FAD2CF" d="M378.4 420c-1.8-2.2-10.5-13.6-6.5-25.7.9-2.6 2.3-5 4.1-7.2l.8.7c-1.8 2.1-3.1 4.4-3.9 6.8-4 11.9 5.2 23.5 6.3 24.8l-.8.6z"/><path fill="#FAD2CF" d="M376.3 427.1c-6.4 0-11.4-2.2-11.7-2.4l.4-.9c.5.2 12.8 5.9 24-1.3 8.2-5.3 10.3-13.9 10.8-16.4l1 .2c-.5 2.6-2.7 11.6-11.2 17.1-4.5 2.8-9.2 3.7-13.3 3.7z"/><circle fill="#FAD2CF" cx="359.9" cy="414.7" r="5"/><circle fill="#FAD2CF" cx="376.5" cy="387.4" r="5"/><path fill="#CEEAD6" d="M366.4 427.8c10.3.2 19.8-5.6 23.9-14.6 4.8-10.4 1.6-23.2-7.9-30.8-2.9 3.7-5.9 8.4-8.6 14-5.8 12.4-7.2 23.9-7.4 31.4z"/><path fill="#CEEAD6" d="M366.4 427.8c10.3.2 19.8-5.6 23.9-14.6 4.8-10.4 1.6-23.2-7.9-30.8-2.9 3.7-5.9 8.4-8.6 14-5.8 12.4-7.2 23.9-7.4 31.4z"/><circle fill="#FAD2CF" cx="374.4" cy="409.8" r="5"/><path fill="#CEEAD6" d="M367.2 432.8c-2.6-4.5-5.8-11.5-7.2-20.4-2.5-15.6 1.8-28.2 4.2-33.9 2.9 5 6.4 12.5 8.2 22.1 2.8 14.7.3 26.9-1.6 33.4l-3.6-1.2z"/><path fill="#CEEAD6" d="M369.7 425.9c.8-5.4 3-13.2 9-19.9.9-1 1.8-1.9 2.8-2.8H395c0 2.5-.4 7.6-3.6 12.5-7.1 10.6-20.7 10.2-21.7 10.2z"/><circle fill="#FAD2CF" cx="400.3" cy="405.1" r="5"/><path fill="#CEEAD6" d="M395.1 416.7c-3.2-1.5-6.3-2.9-9.5-4.4"/><path fill="#E6F4EA" d="M394.3 416.3c-1.1-.1-5.2-.6-8.7-4-3.6-3.6-4-7.9-4.1-9H395c.5 1 1.6 3.3 1.5 6.4-.2 3.3-1.6 5.6-2.2 6.6z"/><path fill="#FEF7E0" d="M375.8 440.9c11.9 0 21.5-9.6 21.5-21.5h-43c0 11.9 9.6 21.5 21.5 21.5z"/><path fill="#FEF7E0" d="M375.8 440.9c11.9 0 21.5-9.6 21.5-21.5h-43c0 11.9 9.6 21.5 21.5 21.5z"/></svg>
